<svg viewBox="0 0 250 41" fill="none" xmlns="http://www.w3.org/2000/svg">
  <path d="M245.384 22.6923C247.827 22.6923 249.808 20.7121 249.808 18.2693C249.808 15.8265 247.827 13.8462 245.384 13.8462C242.942 13.8462 240.961 15.8265 240.961 18.2693C240.961 20.7121 242.942 22.6923 245.384 22.6923Z" fill="#FFC300"/>
  <path d="M245.384 39.4233C247.827 39.4233 249.808 37.443 249.808 35.0002C249.808 32.5574 247.827 30.5771 245.384 30.5771C242.942 30.5771 240.961 32.5574 240.961 35.0002C240.961 37.443 242.942 39.4233 245.384 39.4233Z" fill="#FFC300"/>
  <path d="M19.8078 8.46177C19.2309 8.26947 18.4617 8.26947 17.8848 8.26947C16.5386 8.07716 15.1925 8.65408 14.2309 9.61562C13.4617 10.7695 13.0771 12.1156 13.2694 13.4618V14.231H20.7694V19.8079H13.2694V38.8464H6.73092V19.8079H0.384766V14.231H6.73092V13.2695C6.73092 9.42331 7.69246 6.92331 9.42323 5.19254C11.5386 3.26947 14.2309 2.11562 17.1155 2.30793C18.4617 2.30793 19.6155 2.50024 20.9617 2.69254L19.8078 8.46177Z" fill="#fff"/>
  <path d="M38.8461 20.1927C38.0769 20.0003 37.3077 20.0003 36.5385 20.0003C34.0385 20.0003 31.9231 21.3465 30.5769 23.4619V38.8465H24.0385V14.2311H30.3846V16.7311C32.1154 14.808 34.8077 13.6542 37.5 13.8465C38.2692 13.8465 39.0385 13.8465 39.8077 14.0388L38.8461 20.1927Z" fill="#fff"/>
  <path fill-rule="evenodd" clip-rule="evenodd" d="M59.038 38.8462H65.3842V14.4231H59.038V16.3462C57.1149 14.6154 54.6149 13.8462 51.9226 13.8462H51.7303C44.9996 14.0385 39.8073 19.8077 39.9996 26.5385C39.9996 29.8077 40.9611 32.8847 43.0765 35.1923C45.3842 37.8847 48.8457 39.4231 52.3072 39.4231C54.8072 39.4231 57.1149 38.4616 59.038 36.9231V38.8462ZM52.884 19.8077C55.1917 19.8077 57.4994 20.9616 58.8455 22.8846H59.0378V30.1923C57.6917 32.1154 55.384 33.2692 53.0763 33.2692H52.6917C49.0378 33.0769 46.3455 30 46.5378 26.5385V26.3462C46.5378 22.6923 49.4225 19.8077 52.884 19.8077Z" fill="#fff"/>
  <path d="M70.9619 38.8466V14.2312H77.3081V16.1543C79.2311 14.6158 81.7311 13.6543 84.2311 13.6543C87.5004 13.6543 90.5773 15.0005 92.6927 17.6928C94.6158 20.1928 95.385 23.2697 95.1927 26.3466V38.8466H88.6542V25.7697C88.8465 24.0389 88.2696 22.5005 87.1158 21.1543C86.1542 20.1928 84.8081 19.8081 83.4619 19.8081C81.1542 19.8081 78.8465 20.962 77.5004 22.8851V38.8466H70.9619Z" fill="#fff"/>
  <path d="M122.5 33.8462C120 37.5 115.769 39.4231 111.346 39.4231C104.23 39.6154 98.2688 34.2308 98.0765 27.1154C97.8842 20 103.269 14.0385 110.384 13.8462C110.769 13.8462 110.961 13.8462 111.346 13.8462C115.384 13.8462 119.23 15.577 121.73 18.8462L117.115 22.8847C115.769 21.1539 113.653 20 111.538 20C107.884 20 105 22.8847 105 26.5385V26.7308C104.807 30.3847 107.692 33.2693 111.346 33.4616C111.538 33.4616 111.73 33.4616 111.923 33.4616C114.23 33.4616 116.346 32.1154 117.692 30.1923L122.5 33.8462Z" fill="#fff"/>
  <path fill-rule="evenodd" clip-rule="evenodd" d="M136.346 39.4235C140.192 39.4235 143.846 37.8851 146.346 35.0005L142.5 30.962C140.962 32.6928 138.654 33.8466 136.346 33.8466C133.077 34.0389 130.192 31.3466 129.808 28.0774H146.731C146.923 27.5005 146.923 26.7312 146.923 26.1543V26.1543C146.923 19.4235 142.116 13.6543 135.385 13.6543C128.077 13.6543 123.462 19.6158 123.462 26.5389V27.6928C123.846 34.6158 129.616 39.8081 136.346 39.4235ZM135.385 19.2312C137.692 19.2312 139.808 20.962 140.192 23.462H130.192C130.577 20.962 132.885 19.2312 135.385 19.2312Z" fill="#fff"/>
  <path fill-rule="evenodd" clip-rule="evenodd" d="M157.884 5.76944C158.077 3.46175 156.154 1.53867 153.846 1.53867C151.538 1.34636 149.615 3.26944 149.615 5.57713C149.615 7.88482 151.346 9.8079 153.654 9.8079C155.961 10.0002 157.884 8.07713 157.884 5.76944ZM150.577 38.8464H157.115V14.231H150.577V38.8464Z" fill="#fff"/>
  <path d="M162.692 38.8466V14.2312H169.038V16.1543C170.961 14.6158 173.461 13.6543 175.961 13.6543C179.23 13.6543 182.307 15.0005 184.423 17.6928C186.346 20.1928 187.115 23.2697 186.923 26.3466V38.8466H180.384V25.7697C180.577 24.0389 180 22.5005 178.846 21.1543C177.884 20.1928 176.538 19.8081 175.192 19.8081C172.884 19.8081 170.769 20.962 169.23 22.8851V38.8466H162.692Z" fill="#fff"/>
  <path d="M208.077 8.46177C207.5 8.26947 206.731 8.26947 206.154 8.26947C204.808 8.07716 203.462 8.65408 202.5 9.61562C201.731 10.7695 201.346 12.1156 201.538 13.4618V14.231H209.038V19.8079H201.346V38.8464H194.808V19.8079H188.462V14.231H194.808V13.2695C194.808 9.42331 195.769 6.92331 197.5 5.19254C199.615 3.26947 202.308 2.11562 205.192 2.30793C206.538 2.30793 207.692 2.50024 209.038 2.69254L208.077 8.46177Z" fill="#fff"/>
  <path fill-rule="evenodd" clip-rule="evenodd" d="M235.192 26.9231C235.385 19.8077 229.808 14.0385 222.692 13.8462H222.308C215.385 14.0385 209.615 19.6154 209.615 26.7308C209.615 33.6539 215.192 39.2308 222.115 39.4231C229.231 39.6154 235 34.0385 235.192 26.9231ZM229.231 26.9231C229.039 30.3847 226.154 33.2693 222.692 33.2693C222.596 33.2693 222.548 33.2693 222.524 33.2933C222.5 33.3174 222.5 33.3654 222.5 33.4616C218.846 33.2693 216.154 30.1924 216.346 26.7308V25.9616C216.539 22.3077 219.423 19.6154 223.077 19.8077C226.731 20 229.423 22.8847 229.231 26.5385V26.9231Z" fill="#fff"/>
</svg>
